<?xml version="1.0" encoding="UTF-8"?>
<svg version="1.1" xmlns="http://www.w3.org/2000/svg" width="1024" height="173">
<path d="M0 0 C7.1775 -0.103125 14.355 -0.20625 21.75 -0.3125 C23.99006836 -0.35802002 26.23013672 -0.40354004 28.53808594 -0.45043945 C42.22468591 -0.61318045 52.91142539 0.24505177 63.2578125 10.18359375 C63.83273437 10.78300781 64.40765625 11.38242187 65 12 C65.55429687 12.56847656 66.10859375 13.13695312 66.6796875 13.72265625 C74.50477143 22.26795934 76.9066843 31.63269258 77.03515625 43.15234375 C76.37595443 55.64502206 71.802023 63.30664395 63 72 C62.071875 72.928125 61.14375 73.85625 60.1875 74.8125 C47.83386592 83.29048417 36.23783902 82.60690473 21.75 82.3125 C14.5725 82.209375 7.395 82.10625 0 82 C0 54.94 0 27.88 0 0 Z M26 26 C26 35.9 26 45.8 26 56 C36.74008077 56.81493073 36.74008077 56.81493073 45 53 C49.23461468 48.30758914 50.3041306 45.4970401 50.21484375 39.31640625 C49.776387 34.58904529 47.89552982 31.80816106 44.4375 28.6875 C37.668904 24.00154892 37.91592544 26 26 26 Z " fill="#FFFFFF" transform="translate(832,46)"/>
<path d="M0 0 C10.828125 -0.12375 10.828125 -0.12375 21.875 -0.25 C25.26241455 -0.30462402 25.26241455 -0.30462402 28.71826172 -0.36035156 C30.53872736 -0.3720506 32.35920358 -0.38223954 34.1796875 -0.390625 C35.56039429 -0.4213208 35.56039429 -0.4213208 36.96899414 -0.45263672 C45.36399166 -0.4570844 52.59976558 1.56592257 58.9375 7.25 C65.32489619 14.25359205 66.37902431 23.51281229 66.27734375 32.6640625 C65.68078603 39.83955959 64.05093908 47.41978171 58.9375 52.75 C56 55 56 55 53 56 C54.5824331 59.76267426 56.96553763 62.29678233 59.75 65.25 C71 77.44565217 71 77.44565217 71 82 C46.20745214 84.2284886 46.20745214 84.2284886 39.49707031 80.67431641 C35.29731751 77.11473211 32.68655994 72.74846706 30 68 C29.01 67.01 28.02 66.02 27 65 C26.67 70.61 26.34 76.22 26 82 C17.42 82 8.84 82 0 82 C0 54.94 0 27.88 0 0 Z M26 26 C26 28.64 26 31.28 26 34 C27.79158489 34.02696365 29.58328473 34.04637917 31.375 34.0625 C32.87160156 34.07990234 32.87160156 34.07990234 34.3984375 34.09765625 C36.98432453 34.18006602 36.98432453 34.18006602 39 33 C39 30.69 39 28.38 39 26 C34.71 26 30.42 26 26 26 Z " fill="#FFFFFF" transform="translate(322,46)"/>
<path d="M0 0 C10.828125 -0.12375 10.828125 -0.12375 21.875 -0.25 C25.26241455 -0.30462402 25.26241455 -0.30462402 28.71826172 -0.36035156 C30.53872736 -0.3720506 32.35920358 -0.38223954 34.1796875 -0.390625 C35.56039429 -0.4213208 35.56039429 -0.4213208 36.96899414 -0.45263672 C46.33055271 -0.45759648 53.83877583 2.18885856 60.52734375 8.828125 C64.94467524 15.34281017 65.52359315 21.72717295 65.4375 29.375 C65.43065186 30.303125 65.42380371 31.23125 65.41674805 32.1875 C65.22121283 40.50690081 63.89550486 46.52539417 58.5 53 C56.34610276 54.72311779 54.46545922 55.82995156 52 57 C52.70125 57.75023437 53.4025 58.50046875 54.125 59.2734375 C71 77.43068701 71 77.43068701 71 82 C66.99875767 82.19912394 62.99946427 82.34353456 58.99438477 82.43945312 C57.63514944 82.47946385 56.27625371 82.53389777 54.91821289 82.60351562 C43.6567997 83.16596593 43.6567997 83.16596593 39.640625 80.33959961 C37.86913686 78.31527781 36.42456163 76.27788412 35 74 C34.28070312 73.17628906 33.56140625 72.35257812 32.8203125 71.50390625 C31.67431268 70.19155162 30.52848385 68.87904764 29.3828125 67.56640625 C28.61025568 66.69127832 27.82543714 65.82543714 27 65 C26.67 70.61 26.34 76.22 26 82 C17.42 82 8.84 82 0 82 C0 54.94 0 27.88 0 0 Z M26 26 C26 28.64 26 31.28 26 34 C27.60379341 34.05416188 29.20811406 34.09286638 30.8125 34.125 C31.70582031 34.14820313 32.59914063 34.17140625 33.51953125 34.1953125 C36.25402714 34.18285827 36.25402714 34.18285827 39 32 C38.67 30.02 38.34 28.04 38 26 C34.04 26 30.08 26 26 26 Z " fill="#FFFFFF" transform="translate(757,46)"/>
<path d="M0 0 C1.32091644 0.0001133 1.32091644 0.0001133 2.66851807 0.00022888 C3.61031921 0.00539017 4.55212036 0.01055145 5.52246094 0.01586914 C6.97891022 0.01799156 6.97891022 0.01799156 8.46478271 0.02015686 C11.56216529 0.02574876 14.65947525 0.0382998 17.75683594 0.05102539 C19.85839739 0.05604144 21.95995998 0.06060416 24.06152344 0.06469727 C29.20998886 0.07571554 34.35840009 0.09297465 39.50683594 0.11352539 C39.53570345 4.25934426 39.55358921 8.40513755 39.56933594 12.55102539 C39.57771484 13.7350293 39.58609375 14.9190332 39.59472656 16.13891602 C39.59794922 17.26362305 39.60117187 18.38833008 39.60449219 19.54711914 C39.609729 20.58924561 39.61496582 21.63137207 39.62036133 22.70507812 C39.50683594 25.11352539 39.50683594 25.11352539 38.50683594 26.11352539 C36.21694812 26.27240631 33.92240153 26.36490612 31.62792969 26.42993164 C30.94126724 26.45071274 30.2546048 26.47149384 29.5471344 26.49290466 C27.34630659 26.55846683 25.14535619 26.61731554 22.94433594 26.67602539 C21.4553908 26.71920431 19.9664582 26.76281839 18.47753906 26.80688477 C14.82077041 26.91415469 11.16386276 27.01540311 7.50683594 27.11352539 C8.62960937 27.40485352 9.75238281 27.69618164 10.90917969 27.99633789 C22.18963181 31.03813019 31.48269894 34.23583274 38.50683594 44.11352539 C39.83357756 48.09375026 39.76934958 51.757163 39.81933594 55.92602539 C39.8628418 57.11808594 39.8628418 57.11808594 39.90722656 58.33422852 C39.98030013 65.13007016 37.69534334 68.47444294 33.38183594 73.67602539 C24.79158462 80.95906455 16.25793797 82.27104903 5.39355469 82.21118164 C4.42400345 82.20976669 3.45445221 82.20835175 2.45552063 82.20689392 C-0.63157273 82.20131052 -3.71859274 82.18876103 -6.80566406 82.17602539 C-8.90266822 82.17100825 -10.99967352 82.16644571 -13.09667969 82.16235352 C-18.22886928 82.15134651 -23.36100424 82.13409327 -28.49316406 82.11352539 C-28.52203157 77.96770652 -28.53991734 73.82191323 -28.55566406 69.67602539 C-28.56404297 68.49202148 -28.57242188 67.30801758 -28.58105469 66.08813477 C-28.58427734 64.96342773 -28.5875 63.8387207 -28.59082031 62.67993164 C-28.59605713 61.63780518 -28.60129395 60.59567871 -28.60668945 59.52197266 C-28.49316406 57.11352539 -28.49316406 57.11352539 -27.49316406 56.11352539 C-24.82889721 55.95349051 -22.18755978 55.8540965 -19.52050781 55.79711914 C-18.32404381 55.76594749 -18.32404381 55.76594749 -17.10340881 55.73414612 C-14.54591795 55.66856381 -11.98832126 55.60972572 -9.43066406 55.55102539 C-7.70083525 55.5078484 -5.97101728 55.46423438 -4.24121094 55.42016602 C0.00802854 55.31287367 4.25737483 55.21163113 8.50683594 55.11352539 C7.6687439 54.92560425 7.6687439 54.92560425 6.8137207 54.73388672 C4.22875932 54.14560724 1.6492698 53.53596036 -0.93066406 52.92602539 C-1.80916016 52.72944336 -2.68765625 52.53286133 -3.59277344 52.33032227 C-12.12389404 50.28411253 -19.81013258 47.06297834 -25.34082031 40.00024414 C-28.80908654 34.321693 -29.34669137 27.3966806 -28.06347656 20.95727539 C-26.08665829 13.83096755 -22.2748417 8.45816552 -15.95410156 4.53930664 C-10.6227119 1.79497774 -6.03416745 -0.01733956 0 0 Z " fill="#FFFFFF" transform="translate(939.4931640625,45.886474609375)"/>
<path d="M0 0 C10.47964524 6.49210727 16.78189554 15.9259363 19.6875 27.8125 C21.03964456 41.60437454 18.74918122 53.18521777 9.875 64.1875 C2.85473106 71.74425237 -6.05472497 76.74355784 -16.41796875 77.37109375 C-28.28759399 77.67639391 -37.84024757 76.53902483 -47.3125 68.6875 C-48.56357624 67.48064059 -49.79318831 66.25112227 -51 65 C-51.62777344 64.38125 -52.25554687 63.7625 -52.90234375 63.125 C-61.36664986 54.2491103 -62.57368046 45.59834817 -62.47729492 33.69628906 C-62.26941275 27.14477984 -61.44960829 21.68945812 -58 16 C-57.4225 14.96875 -56.845 13.9375 -56.25 12.875 C-42.64684779 -4.50680561 -19.94743943 -11.76540589 0 0 Z M-33.8125 27.625 C-34.204375 28.40875 -34.59625 29.1925 -35 30 C-35.33 30.66 -35.66 31.32 -36 32 C-36.37381854 37.60727817 -36.18490827 41.16772538 -33 46 C-28.51580893 50.14787674 -25.13481852 51.32330564 -18.98828125 51.2109375 C-14.53332276 50.73830929 -12.03460905 48.18224388 -9.25 44.9375 C-5.94502149 40.62266695 -5.63599153 38.460127 -6 33 C-7.8401448 27.69605324 -11.06320479 23.68944814 -16 21 C-23.4920262 19.43520972 -29.35351356 21.16715757 -33.8125 27.625 Z " fill="#FFFFFF" transform="translate(481,51)"/>
<path d="M0 0 C2.05437509 1.48241839 3.99270637 3.05313135 5.9375 4.67578125 C6.55753906 5.13984375 7.17757812 5.60390625 7.81640625 6.08203125 C14.65388001 11.39842553 18.01015378 18.31826225 19.9375 26.67578125 C20.23260934 29.95153012 20.27166993 33.20064285 20.25 36.48828125 C20.24436035 37.37612305 20.2387207 38.26396484 20.23291016 39.17871094 C20.04336524 49.39161605 18.12159518 57.14052867 10.9375 64.67578125 C0.53436384 74.68071124 -8.74139335 78.35762302 -23.00170898 78.21289062 C-34.07892985 77.76421534 -41.93012909 73.75635053 -49.87109375 66.0703125 C-57.63844693 57.58299076 -62.0625 48.27110947 -62.0625 36.67578125 C-60.93922492 23.40709435 -56.85424189 13.80527972 -47.0625 4.67578125 C-34.54261351 -5.55992629 -14.22512468 -9.13317664 0 0 Z M-33.375 28.48828125 C-35.32314748 32.16811538 -36.0625 34.50136671 -36.0625 38.67578125 C-34.37222317 43.97529625 -31.79477716 47.64227025 -27.0625 50.67578125 C-21.96842137 52.37380746 -17.16063752 52.54760715 -12.3125 50.17578125 C-8.34039213 47.58844493 -6.31455456 44.20624182 -5.0625 39.67578125 C-4.63824426 34.01196714 -6.474874 30.06065747 -10.0625 25.67578125 C-12.36778182 23.0992898 -13.95762325 21.8571513 -17.39453125 21.29296875 C-24.68242353 20.96517749 -28.67436798 22.77129636 -33.375 28.48828125 Z " fill="#FFFFFF" transform="translate(299.0625,50.32421875)"/>
<path d="M0 0 C2.05472211 1.4826688 3.99461394 3.05010108 5.9375 4.67578125 C6.56914063 5.16304687 7.20078125 5.6503125 7.8515625 6.15234375 C12.1181326 9.54744422 14.70366792 12.67199739 16.9375 17.67578125 C16.9981517 19.67486138 17.00768147 21.67701299 16.9375 23.67578125 C14.05004776 25.19233229 11.15132748 26.68597084 8.25 28.17578125 C7.43337891 28.60503906 6.61675781 29.03429687 5.77539062 29.4765625 C4.97939453 29.88261719 4.18339844 30.28867188 3.36328125 30.70703125 C2.63536377 31.08408203 1.90744629 31.46113281 1.1574707 31.84960938 C-1.42905976 32.81219808 -3.32333805 32.96064725 -6.0625 32.67578125 C-8.01171875 30.7421875 -8.01171875 30.7421875 -9.75 28.23828125 C-11.93055099 24.91007342 -11.93055099 24.91007342 -15.0625 22.67578125 C-20.01507903 22.18929603 -24.50882633 21.88241597 -29 24.17578125 C-32.64497498 28.59393275 -35.02278135 32.4118182 -35.125 38.23828125 C-33.5600595 43.30132405 -31.31981211 47.27258724 -26.75 50.11328125 C-22.0344589 51.10025497 -17.91034213 51.40632349 -13.375 49.61328125 C-10.24426828 46.99023576 -8.31272567 44.08326583 -6.0625 40.67578125 C-0.49777426 41.23580956 3.8642939 43.31030555 8.8125 45.73828125 C9.59625 46.11533203 10.38 46.49238281 11.1875 46.88085938 C13.10745053 47.80571359 15.022939 48.73982103 16.9375 49.67578125 C17.18469533 55.92629164 15.92053623 58.94280096 11.9375 63.67578125 C2.25951661 73.26709614 -6.74211684 77.97644373 -20.5 78.23828125 C-31.50744064 78.14682158 -40.29244462 75.24227372 -48.32421875 67.4765625 C-48.89785156 66.88230469 -49.47148438 66.28804688 -50.0625 65.67578125 C-50.60519531 65.15371094 -51.14789062 64.63164063 -51.70703125 64.09375 C-59.83884644 55.63254483 -62.0625 44.75673358 -62.0625 33.41015625 C-61.39385479 21.79244567 -55.45777706 12.37145189 -47.0625 4.67578125 C-34.52750866 -5.5467203 -14.23742891 -9.14107652 0 0 Z " fill="#FFFFFF" transform="translate(661.0625,50.32421875)"/>
<path d="M0 0 C1.70209877 0.00333092 1.70209877 0.00333092 3.43858337 0.00672913 C4.71983597 0.00680466 6.00108856 0.00688019 7.32116699 0.00695801 C8.73001646 0.01206542 10.13886554 0.01728143 11.54771423 0.02259827 C12.98118033 0.02446249 14.41464706 0.02588637 15.84811401 0.02688599 C19.62765755 0.03071079 23.40716288 0.04054075 27.18669128 0.05158997 C31.04075097 0.06180489 34.8948168 0.06638378 38.74888611 0.07142639 C46.31596287 0.08216306 53.88300021 0.09975955 61.45005798 0.12025452 C61.45005798 8.70025452 61.45005798 17.28025452 61.45005798 26.12025452 C48.58005798 26.12025452 35.71005798 26.12025452 22.45005798 26.12025452 C22.45005798 26.78025452 22.45005798 27.44025452 22.45005798 28.12025452 C29.71005798 28.12025452 36.97005798 28.12025452 44.45005798 28.12025452 C44.45005798 36.70025452 44.45005798 45.28025452 44.45005798 54.12025452 C37.19005798 54.12025452 29.93005798 54.12025452 22.45005798 54.12025452 C22.45005798 63.36025452 22.45005798 72.60025452 22.45005798 82.12025452 C18.34568298 82.14087952 14.24130798 82.16150452 10.01255798 82.18275452 C8.06845032 82.19641052 8.06845032 82.19641052 6.08506775 82.21034241 C4.56610901 82.21408875 4.56610901 82.21408875 3.01646423 82.21791077 C1.45327454 82.22576599 1.45327454 82.22576599 -0.14149475 82.23377991 C-2.54994202 82.12025452 -2.54994202 82.12025452 -3.54994202 81.12025452 C-3.65028068 78.63071755 -3.68612144 76.16890498 -3.67933655 73.67884827 C-3.68108887 72.90002289 -3.68284119 72.12119751 -3.68464661 71.31877136 C-3.68906551 68.7317434 -3.68612701 66.14478323 -3.68275452 63.55775452 C-3.68342755 61.76795946 -3.68439756 59.97816449 -3.68565369 58.18836975 C-3.68713071 54.43225741 -3.68497596 50.6761688 -3.68031311 46.9200592 C-3.67461582 42.09424958 -3.6778948 37.26849557 -3.68388557 32.44268799 C-3.68749107 28.74537229 -3.68635266 25.04806987 -3.68375778 21.35075378 C-3.68308848 19.57086684 -3.68391705 17.7909787 -3.68623734 16.01109314 C-3.68876367 13.52791629 -3.68492356 11.04483077 -3.67933655 8.56166077 C-3.68136078 7.81876801 -3.68338501 7.07587524 -3.68547058 6.31047058 C-3.65975565 0.172593 -3.65975565 0.172593 0 0 Z " fill="#FFFFFF" transform="translate(506.54994201660156,45.87974548339844)"/>
<path d="M0 0 C1.32 0 2.64 0 4 0 C4.35191406 0.73412109 4.70382812 1.46824219 5.06640625 2.22460938 C13.01784406 18.80221536 20.97863125 35.35498287 29.52416992 51.63671875 C43 77.31827627 43 77.31827627 43 82 C34.42 82 25.84 82 17 82 C15.02 78.37 13.04 74.74 11 71 C7.05569452 69.92457569 5.01469592 69.61039984 1.125 69.8125 C0.24585938 69.81443359 -0.63328125 69.81636719 -1.5390625 69.81835938 C-3.69352744 69.83006842 -5.84745317 69.90835692 -8 70 C-8.268125 70.86625 -8.53625 71.7325 -8.8125 72.625 C-10 76 -10 76 -13 82 C-21.58 82 -30.16 82 -39 82 C-38.1388145 76.83288697 -36.91957319 73.31845243 -34.5625 68.8125 C-34.20905518 68.120354 -33.85561035 67.42820801 -33.49145508 66.71508789 C-31.57146765 62.97225898 -29.60754154 59.25324061 -27.6328125 55.5390625 C-26.81748236 54.00532844 -26.00238233 52.47147203 -25.1875 50.9375 C-24.77201904 50.15568359 -24.35653809 49.37386719 -23.9284668 48.56835938 C-20.0799817 41.26801952 -16.52030034 33.84092211 -12.98754883 26.38378906 C-9.10821049 18.19554221 -5.09125061 10.08404866 -1 2 C-0.67 1.34 -0.34 0.68 0 0 Z " fill="#FFFFFF" transform="translate(712,46)"/>
<path d="M0 0 C0.99 0 1.98 0 3 0 C11.99812174 16.57346355 11.99812174 16.57346355 13.9375 21.9375 C16.0638442 27.70335427 19.2162142 32.93186155 22.29663086 38.23022461 C24.48855156 42.05224101 26.38230515 45.80698779 27.95703125 49.92578125 C30.38531604 56.24127508 33.78381158 61.93916233 37.19726562 67.76367188 C37.90979492 69.01567383 37.90979492 69.01567383 38.63671875 70.29296875 C39.06686279 71.0305542 39.49700684 71.76813965 39.94018555 72.52807617 C41 75 41 75 42 82 C33.42 82 24.84 82 16 82 C14.35 78.37 12.7 74.74 11 71 C4.4 70.67 -2.2 70.34 -9 70 C-9.66 71.98 -10.32 73.96 -11 76 C-11.99 77.98 -12.98 79.96 -14 82 C-22.58 82 -31.16 82 -40 82 C-38.87571805 75.25430828 -38.87571805 75.25430828 -37.21484375 72.2578125 C-36.6729541 71.26128662 -36.6729541 71.26128662 -36.12011719 70.24462891 C-35.53472168 69.1954126 -35.53472168 69.1954126 -34.9375 68.125 C-34.1066428 66.59452551 -33.27724429 65.06325834 -32.44921875 63.53125 C-32.03333496 62.76554687 -31.61745117 61.99984375 -31.18896484 61.2109375 C-29.48562201 58.04348932 -27.85520682 54.84309405 -26.25 51.625 C-25.93659668 50.99803223 -25.62319336 50.37106445 -25.30029297 49.72509766 C-23.13179025 45.35550686 -21.02215688 40.95930991 -18.92578125 36.5546875 C-13.00381117 24.12437066 -7.02283308 11.84989664 0 0 Z " fill="#FFFFFF" transform="translate(131,46)"/>
<path d="M0 0 C8.25 0 16.5 0 25 0 C28.625 7.25 28.625 7.25 29.81298828 9.63037109 C31.48558593 12.98124171 33.16351845 16.32886674 34.8671875 19.6640625 C35.40601563 20.72367188 35.94484375 21.78328125 36.5 22.875 C36.9846875 23.82117188 37.469375 24.76734375 37.96875 25.7421875 C39 28 39 28 39 30 C39.66 30 40.32 30 41 30 C41.27183105 29.13036621 41.54366211 28.26073242 41.82373047 27.36474609 C42.9518017 24.13787235 44.27977748 21.2123552 45.8203125 18.1640625 C46.35527344 17.10058594 46.89023438 16.03710938 47.44140625 14.94140625 C47.99699219 13.84699219 48.55257812 12.75257812 49.125 11.625 C49.68832031 10.50738281 50.25164062 9.38976562 50.83203125 8.23828125 C52.21773532 5.49035962 53.60838329 2.74493205 55 0 C63.58 0 72.16 0 81 0 C79.87563857 6.74616858 79.87563857 6.74616858 77.99609375 10.1796875 C77.58963623 10.93443359 77.18317871 11.68917969 76.7644043 12.46679688 C76.32652588 13.26150391 75.88864746 14.05621094 75.4375 14.875 C74.51439501 16.59048454 73.59253531 18.30663971 72.671875 20.0234375 C71.98641602 21.29525879 71.98641602 21.29525879 71.28710938 22.59277344 C69.53495611 25.86975203 67.84607435 29.17484532 66.1875 32.5 C65.72428345 33.4266748 65.72428345 33.4266748 65.25170898 34.37207031 C63.08919695 38.73015868 60.98631994 43.1153708 58.89453125 47.5078125 C47.58060833 71.24438336 47.58060833 71.24438336 41 82 C40.01 82 39.02 82 38 82 C36.24518586 78.69002936 34.4970557 75.37657131 32.75 72.0625 C32.01330078 70.67321289 32.01330078 70.67321289 31.26171875 69.25585938 C28.65609917 64.30518217 26.22807124 59.33962374 24.00097656 54.20874023 C22.18843814 50.20921947 20.08060631 46.36488384 18 42.5 C15.50910175 37.8729678 13.07484008 33.26922221 10.984375 28.4453125 C9.67125631 25.42144058 8.24404111 22.52912917 6.640625 19.6484375 C6.05087891 18.58882812 6.05087891 18.58882812 5.44921875 17.5078125 C4.64263449 16.07330109 3.82735315 14.64364872 3.00390625 13.21875 C2.61589844 12.51492187 2.22789063 11.81109375 1.828125 11.0859375 C1.4765332 10.4676709 1.12494141 9.8494043 0.76269531 9.21240234 C0 7 0 7 0 0 Z " fill="#FFFFFF" transform="translate(46,46)"/>
<path d="M0 0 C1.12019531 -0.00128906 2.24039063 -0.00257812 3.39453125 -0.00390625 C4.57402344 -0.00003906 5.75351563 0.00382812 6.96875 0.0078125 C8.73798828 0.00201172 8.73798828 0.00201172 10.54296875 -0.00390625 C12.22326172 -0.00197266 12.22326172 -0.00197266 13.9375 0 C14.97326172 0.00112793 16.00902344 0.00225586 17.07617188 0.00341797 C19.46875 0.1328125 19.46875 0.1328125 20.46875 1.1328125 C20.5623419 2.85146659 20.58619611 4.57396994 20.58227539 6.29516602 C20.58219986 7.39623184 20.58212433 8.49729767 20.58204651 9.63172913 C20.57688522 10.8296257 20.57172394 12.02752228 20.56640625 13.26171875 C20.5649913 14.48108627 20.56357635 15.7004538 20.56211853 16.95677185 C20.55649967 20.8696432 20.54394396 24.78245831 20.53125 28.6953125 C20.52623743 31.34049397 20.5216741 33.98567633 20.51757812 36.63085938 C20.50737296 43.13154976 20.48780121 49.63211783 20.46875 56.1328125 C31.35875 56.1328125 42.24875 56.1328125 53.46875 56.1328125 C53.46875 64.7128125 53.46875 73.2928125 53.46875 82.1328125 C45.80037433 82.15375799 38.13210169 82.17379608 30.46372223 82.18456268 C26.89303875 82.1898524 23.32237885 82.19692589 19.75170898 82.20825195 C15.65868903 82.22115426 11.5656942 82.22604156 7.47265625 82.23046875 C5.54456871 82.23821068 5.54456871 82.23821068 3.57752991 82.24610901 C1.80580666 82.24622231 1.80580666 82.24622231 -0.00170898 82.24633789 C-1.57057106 82.24966881 -1.57057106 82.24966881 -3.17112732 82.25306702 C-5.53125 82.1328125 -5.53125 82.1328125 -6.53125 81.1328125 C-6.63158866 78.64327553 -6.66742943 76.18146297 -6.66064453 73.69140625 C-6.66239685 72.91258087 -6.66414917 72.13375549 -6.66595459 71.33132935 C-6.67037349 68.74430139 -6.66743499 66.15734121 -6.6640625 63.5703125 C-6.66473553 61.78051744 -6.66570554 59.99072248 -6.66696167 58.20092773 C-6.66843869 54.44481539 -6.66628394 50.68872678 -6.66162109 46.93261719 C-6.6559238 42.10680757 -6.65920278 37.28105355 -6.66519356 32.45524597 C-6.66879905 28.75793027 -6.66766064 25.06062786 -6.66506577 21.36331177 C-6.66439646 19.58342482 -6.66522503 17.80353668 -6.66754532 16.02365112 C-6.67007165 13.54047428 -6.66623154 11.05738876 -6.66064453 8.57421875 C-6.66266876 7.83132599 -6.66469299 7.08843323 -6.66677856 6.32302856 C-6.64054274 0.06081812 -6.13648668 0.00668255 0 0 Z " fill="#FFFFFF" transform="translate(181.53125,45.8671875)"/>
</svg>
